<?xml version="1.0" standalone="no"?>
<!DOCTYPE svg PUBLIC "-//W3C//DTD SVG 20010904//EN"
 "http://www.w3.org/TR/2001/REC-SVG-20010904/DTD/svg10.dtd">
<svg version="1.0" xmlns="http://www.w3.org/2000/svg"
 width="256.000000pt" height="256.000000pt" viewBox="0 0 256.000000 256.000000"
 preserveAspectRatio="xMidYMid meet">
<metadata>
Created by potrace 1.14, written by Peter Selinger 2001-2017
</metadata>
<g transform="translate(0.000000,256.000000) scale(0.100000,-0.100000)"
fill="#000000" stroke="none">
<path d="M420 1280 l0 -992 388 5 c213 2 401 7 417 11 17 3 46 9 65 12 72 12
86 15 125 25 411 105 654 363 713 759 15 95 5 411 -13 440 -2 4 -7 21 -10 39
-10 58 -71 195 -118 266 -141 215 -385 353 -707 401 -19 3 -46 8 -60 11 -14 3
-199 8 -412 10 l-388 5 0 -992z m780 409 c140 -24 254 -117 291 -240 39 -127
29 -291 -25 -396 -56 -111 -196 -187 -361 -195 l-50 -3 -3 415 c-1 228 0 420
2 426 5 12 48 10 146 -7z"/>
</g>
</svg>
